01.The.Girl.With.The.Dragon.Tattoo.2009.BluRay.1080p.x264.AC3-5.1-PeN.mkv
   General
      Complete name : H:\Movies\Millennium.Trilogy.1080p.Bluray.x264.AC3-5.1-PeN\Millennium.01.The.Girl.With.The.Dragon.Tattoo.2009.BluRay.1080p.x264.AC3-5.1-PeN.mkv
      Format : Matroska
      File size : 4.37 GiB
      Duration : 2h 32mn
      Overall bit rate : 4 099 Kbps
      Encoded date : UTC 2010-11-15 22:34:55
      Writing application : mkvmerge v2.9.8 ('C'est le bon') built on Aug 13 2009 12:49:06
      Writing library : libebml v0.7.7 + libmatroska v0.8.1
   Video #1
      ID : 1
      Format : AVC
      Format/Info : Advanced Video Codec
      Format profile : High@L4.0
      Format settings, CABAC : Yes
      Format settings, ReFrames : 5 frames
      Muxing mode : Container profile=Unknown@4.0
      Codec ID : V_MPEG4/ISO/AVC
      Duration : 2h 32mn
      Bit rate : 3 633 Kbps
      Nominal bit rate : 3 717 Kbps
      Width : 1 920 pixels
      Height : 816 pixels
      Display aspect ratio : 2.35:1
      Frame rate : 24.000 fps
      Resolution : 24 bits
      Colorimetry : 4:2:0
      Scan type : Progressive
      Bits/(Pixel*Frame) : 0.097
      Stream size : 3.88 GiB (89%)
      Writing library : x264 core 65
      Encoding settings : cabac=1 / ref=5 / deblock=1:-2:-2 / analyse=0x3:0x133 / me=umh / subme=9 / psy_rd=1.0:1.0 / mixed_ref=1 / me_range=32 / chroma_me=1 / trellis=1 / 8x8dct=1 / cqm=0 / deadzone=21,11 / chroma_qp_offset=-4 / threads=3 / nr=0 / decimate=1 / mbaff=0 / bframes=6 / b_pyramid=1 / b_adapt=1 / b_bias=0 / direct=3 / wpredb=1 / keyint=241 / keyint_min=25 / scenecut=40(pre) / rc=2pass / bitrate=3717 / ratetol=1.0 / qcomp=0.60 / qpmin=10 / qpmax=51 / qpstep=4 / cplxblur=20.0 / qblur=0.5 / ip_ratio=1.40 / pb_ratio=1.30 / aq=1:1.00
      Language : English
      colour_primaries : BT.709-5, BT.1361, IEC 61966-2-4, SMPTE RP177
      transfer_characteristics : BT.709-5, BT.1361
      matrix_coefficients : BT.709-5, BT.1361, IEC 61966-2-4 709, SMPTE RP177
   Audio #2
      ID : 2
      Format : AC-3
      Format/Info : Audio Coding 3
      Codec ID : A_AC3
      Duration : 2h 32mn
      Bit rate mode : Constant
      Bit rate : 384 Kbps
      Channel(s) : 6 channels
      Channel positions : Front: L C R, Surround: L R, LFE
      Sampling rate : 48.0 KHz
      Stream size : 419 MiB (9%)
      Language : Swedish
   Text #3
      ID : 3
      Format : UTF-8
      Codec ID : S_TEXT/UTF8
      Codec ID/Info : UTF-8 Plain Text
      Language : English
   Text #5
      ID : 5
      Format : UTF-8
      Codec ID : S_TEXT/UTF8
      Codec ID/Info : UTF-8 Plain Text
      Language : Bulgarian
   Text #4
      ID : 4
      Format : UTF-8
      Codec ID : S_TEXT/UTF8
      Codec ID/Info : UTF-8 Plain Text






02.The.Girl.Who.Played.With.Fire.2009.BluRay.1080p.x264.AC3-5.1-PeN.mkv
   General
      Complete name : H:\Movies\Millennium.Trilogy.1080p.Bluray.x264.AC3-5.1-PeN\Millennium.02.The.Girl.Who.Played.With.Fire.2009.BluRay.1080p.x264.AC3-5.1-PeN.mkv
      Format : Matroska
      File size : 4.37 GiB
      Duration : 2h 9mn
      Overall bit rate : 4 836 Kbps
      Encoded date : UTC 2010-11-15 22:48:53
      Writing application : mkvmerge v2.9.8 ('C'est le bon') built on Aug 13 2009 12:49:06
      Writing library : libebml v0.7.7 + libmatroska v0.8.1
   Video #1
      ID : 1
      Format : AVC
      Format/Info : Advanced Video Codec
      Format profile : High@L4.0
      Format settings, CABAC : Yes
      Format settings, ReFrames : 4 frames
      Muxing mode : Container profile=Unknown@4.0
      Codec ID : V_MPEG4/ISO/AVC
      Duration : 2h 9mn
      Bit rate : 4 356 Kbps
      Nominal bit rate : 4 451 Kbps
      Width : 1 920 pixels
      Height : 1 080 pixels
      Display aspect ratio : 16:9
      Frame rate : 24.000 fps
      Resolution : 24 bits
      Colorimetry : 4:2:0
      Scan type : Progressive
      Bits/(Pixel*Frame) : 0.088
      Stream size : 3.94 GiB (90%)
      Writing library : x264 core 65
      Encoding settings : cabac=1 / ref=4 / deblock=1:-2:-2 / analyse=0x3:0x133 / me=umh / subme=9 / psy_rd=1.0:1.0 / mixed_ref=1 / me_range=32 / chroma_me=1 / trellis=1 / 8x8dct=1 / cqm=0 / deadzone=21,11 / chroma_qp_offset=-4 / threads=3 / nr=0 / decimate=1 / mbaff=0 / bframes=6 / b_pyramid=1 / b_adapt=1 / b_bias=0 / direct=3 / wpredb=1 / keyint=241 / keyint_min=25 / scenecut=40(pre) / rc=2pass / bitrate=4451 / ratetol=1.0 / qcomp=0.60 / qpmin=10 / qpmax=51 / qpstep=4 / cplxblur=20.0 / qblur=0.5 / ip_ratio=1.40 / pb_ratio=1.30 / aq=1:1.00
      Language : English
      colour_primaries : BT.709-5, BT.1361, IEC 61966-2-4, SMPTE RP177
      transfer_characteristics : BT.709-5, BT.1361
      matrix_coefficients : BT.709-5, BT.1361, IEC 61966-2-4 709, SMPTE RP177
   Audio #2
      ID : 2
      Format : AC-3
      Format/Info : Audio Coding 3
      Codec ID : A_AC3
      Duration : 2h 9mn
      Bit rate mode : Constant
      Bit rate : 384 Kbps
      Channel(s) : 6 channels
      Channel positions : Front: L C R, Surround: L R, LFE
      Sampling rate : 48.0 KHz
      Stream size : 355 MiB (8%)
      Language : Swedish
   Text #3
      ID : 3
      Format : UTF-8
      Codec ID : S_TEXT/UTF8
      Codec ID/Info : UTF-8 Plain Text
      Language : English
   Text #4
      ID : 4
      Format : UTF-8
      Codec ID : S_TEXT/UTF8
      Codec ID/Info : UTF-8 Plain Text
      Language : Bulgarian








03.The.Girl.Who.Kicked.The.Hornets.Nest.2009.BluRay.1080p.x264.AC3-5.1-PeN.mkv
   General
      Complete name : H:\Movies\Millennium.Trilogy.1080p.Bluray.x264.AC3-5.1-PeN\Millennium.03.The.Girl.Who.Kicked.The.Hornets.Nest.2009.BluRay.1080p.x264.AC3-5.1-PeN.mkv
      Format : Matroska
      File size : 4.37 GiB
      Duration : 2h 26mn
      Overall bit rate : 4 265 Kbps
      Encoded date : UTC 2010-11-10 21:53:37
      Writing application : mkvmerge v2.9.8 ('C'est le bon') built on Aug 13 2009 12:49:06
      Writing library : libebml v0.7.7 + libmatroska v0.8.1
   Video #1
      ID : 1
      Format : AVC
      Format/Info : Advanced Video Codec
      Format profile : High@L5.0
      Format settings, CABAC : Yes
      Format settings, ReFrames : 5 frames
      Muxing mode : Container profile=Unknown@5.0
      Codec ID : V_MPEG4/ISO/AVC
      Duration : 2h 26mn
      Bit rate : 3 796 Kbps
      Nominal bit rate : 3 879 Kbps
      Width : 1 920 pixels
      Height : 1 080 pixels
      Display aspect ratio : 16:9
      Frame rate : 24.000 fps
      Resolution : 24 bits
      Colorimetry : 4:2:0
      Scan type : Progressive
      Bits/(Pixel*Frame) : 0.076
      Stream size : 3.89 GiB (89%)
      Writing library : x264 core 65
      Encoding settings : cabac=1 / ref=5 / deblock=1:-2:-2 / analyse=0x3:0x133 / me=umh / subme=9 / psy_rd=1.0:1.0 / mixed_ref=1 / me_range=32 / chroma_me=1 / trellis=1 / 8x8dct=1 / cqm=0 / deadzone=21,11 / chroma_qp_offset=-4 / threads=3 / nr=0 / decimate=1 / mbaff=0 / bframes=6 / b_pyramid=1 / b_adapt=1 / b_bias=0 / direct=3 / wpredb=1 / keyint=241 / keyint_min=25 / scenecut=40(pre) / rc=2pass / bitrate=3879 / ratetol=1.0 / qcomp=0.60 / qpmin=10 / qpmax=51 / qpstep=4 / cplxblur=20.0 / qblur=0.5 / ip_ratio=1.40 / pb_ratio=1.30 / aq=1:1.00
      Language : English
      colour_primaries : BT.709-5, BT.1361, IEC 61966-2-4, SMPTE RP177
      transfer_characteristics : BT.709-5, BT.1361
      matrix_coefficients : BT.709-5, BT.1361, IEC 61966-2-4 709, SMPTE RP177
   Audio #2
      ID : 2
      Format : AC-3
      Format/Info : Audio Coding 3
      Codec ID : A_AC3
      Duration : 2h 26mn
      Bit rate mode : Constant
      Bit rate : 384 Kbps
      Channel(s) : 6 channels
      Channel positions : Front: L C R, Surround: L R, LFE
      Sampling rate : 48.0 KHz
      Stream size : 403 MiB (9%)
      Language : Swedish
   Text #3
      ID : 3
      Format : UTF-8
      Codec ID : S_TEXT/UTF8
      Codec ID/Info : UTF-8 Plain Text
      Language : English
   Text #4
      ID : 4
      Format : UTF-8
      Codec ID : S_TEXT/UTF8
      Codec ID/Info : UTF-8 Plain Text
      Language : Bulgarian